<?xml version="1.0" encoding="UTF-8"?>
<svg id="_Группа_1" data-name=" Группа 1" xmlns="http://www.w3.org/2000/svg" xmlns:xlink="http://www.w3.org/1999/xlink" viewBox="0 0 392.08 37.64">
  <defs>
    <style>
      .cls-1 {
        fill: url(#_Безымянный_градиент);
        fill-rule: evenodd;
      }

      .cls-2 {
        fill: url(#_Безымянный_градиент_6);
      }

      .cls-3 {
        fill: url(#_Безымянный_градиент_5);
      }
    </style>
    <linearGradient id="_Безымянный_градиент" data-name="Безымянный градиент" x1="196.4" y1="71.4" x2="195.87" y2="-33.83" gradientTransform="translate(0 35.39) scale(1 -1)" gradientUnits="userSpaceOnUse">
      <stop offset="0" stop-color="#e2e2e2"/>
      <stop offset="1" stop-color="#81807e"/>
    </linearGradient>
    <linearGradient id="_Безымянный_градиент_5" data-name="Безымянный градиент 5" x1="346.83" y1="70.64" x2="346.31" y2="-34.59" gradientTransform="translate(0 35.39) scale(1 -1)" gradientUnits="userSpaceOnUse">
      <stop offset="0" stop-color="#e2e2e2"/>
      <stop offset="1" stop-color="#81807e"/>
    </linearGradient>
    <linearGradient id="_Безымянный_градиент_6" data-name="Безымянный градиент 6" x1="351.2" y1="70.62" x2="350.67" y2="-34.61" gradientTransform="translate(0 35.39) scale(1 -1)" gradientUnits="userSpaceOnUse">
      <stop offset="0" stop-color="#e2e2e2"/>
      <stop offset="1" stop-color="#81807e"/>
    </linearGradient>
  </defs>
  <path id="APPLE_SERVI_E" data-name="APPLE SERVI E" class="cls-1" d="M24.28,36.24c.05,.31,.26,.58,.55,.7,.31,.09,.64,.14,.96,.13h6.19c.28,.06,.57-.1,.68-.36,.07-.22,.07-.46,0-.68L21.85,3.43c-.16-.52-.38-1.03-.65-1.51-.2-.35-.47-.65-.81-.88-.33-.21-.7-.35-1.09-.39-.5-.06-1-.08-1.51-.08h-3.12c-.46,0-.92,.04-1.38,.13-.37,.08-.73,.23-1.04,.44-.32,.23-.58,.52-.78,.86-.26,.45-.46,.93-.6,1.43L.05,36.03c-.07,.24-.06,.49,.03,.73,.15,.24,.42,.36,.7,.31H6.86c.35,.03,.71-.05,1.01-.23,.22-.2,.37-.46,.44-.75l2.03-6.6h11.91l2.03,6.76h0ZM14.19,16.46l1.98-7.46h.31l1.92,7.46,1.98,6.63H12.22l1.98-6.63h-.01Zm32.55,7.41h6.92c2.41,.1,4.8-.36,6.99-1.35,1.57-.75,2.94-1.87,4-3.25,.87-1.16,1.48-2.49,1.79-3.9,.25-1.1,.39-2.22,.42-3.35,.02-1.56-.26-3.12-.83-4.58-.54-1.36-1.36-2.58-2.42-3.59-1.11-1.04-2.42-1.84-3.85-2.37-1.62-.59-3.34-.88-5.07-.86h-12.74c-.92-.13-1.85,.19-2.5,.86-.45,.69-.67,1.5-.62,2.31V35.98c-.04,.31,.07,.63,.29,.86,.27,.18,.59,.26,.91,.23h5.46c.35,.04,.7-.03,1.01-.18,.2-.26,.28-.59,.23-.91v-12.11h.01Zm10.71-7.83c-1.02,1.03-2.45,1.55-3.9,1.43h-6.81V7.59h6.76c.88-.03,1.76,.14,2.57,.49,.62,.29,1.18,.72,1.61,1.25,.38,.47,.66,1.02,.81,1.61,.13,.52,.2,1.05,.21,1.59,.04,1.29-.41,2.54-1.25,3.51h0Zm24.34,7.82h6.92c2.41,.1,4.8-.36,6.99-1.35,1.57-.75,2.94-1.87,4-3.25,.87-1.16,1.48-2.49,1.79-3.9,.25-1.1,.39-2.22,.42-3.35,.02-1.56-.26-3.12-.83-4.58-.54-1.36-1.36-2.58-2.42-3.59-1.11-1.04-2.42-1.84-3.85-2.37-1.62-.59-3.34-.88-5.07-.86h-12.74c-.92-.13-1.85,.19-2.5,.86-.45,.69-.67,1.5-.62,2.31V35.97c-.04,.31,.07,.63,.29,.86,.27,.18,.59,.26,.91,.23h5.46c.35,.04,.7-.03,1.01-.18,.2-.26,.28-.59,.23-.91v-12.11h.01Zm10.71-7.83c-1.02,1.03-2.45,1.55-3.9,1.43h-6.81V7.58h6.76c.88-.03,1.76,.14,2.57,.49,.62,.29,1.18,.72,1.61,1.25,.38,.47,.66,1.02,.81,1.61,.13,.52,.2,1.05,.21,1.59,.04,1.29-.41,2.54-1.25,3.51h0Zm26.05,21.03h15.03c.51,.05,.96-.33,1-.84,0-.09,0-.17,0-.26v-4.63c.05-.32-.03-.64-.21-.91-.23-.15-.51-.21-.78-.18h-13.21c-.89,.04-1.77-.19-2.52-.68-.73-.67-1.09-1.66-.96-2.65V1.69c.04-.31-.04-.63-.23-.88-.31-.18-.66-.25-1.01-.21h-5.51c-.32-.03-.64,.06-.91,.23-.22,.23-.32,.54-.29,.86V27.48c0,1.17,.14,2.34,.42,3.48,.27,1.12,.78,2.17,1.51,3.07,.79,.95,1.8,1.7,2.94,2.18,1.51,.61,3.13,.89,4.76,.83h0l-.02,.02Zm48.05-1.2v-4.42c.04-.35-.03-.7-.18-1.01-.24-.2-.55-.28-.86-.23h-13.72c-.89,.06-1.77-.17-2.52-.65-.66-.64-.97-1.56-.86-2.47v-5.92h14.92c.3,.05,.6-.06,.81-.29,.14-.28,.2-.6,.18-.91v-4.06c.03-.34-.03-.68-.18-.99-.21-.21-.51-.3-.81-.26h-14.92v-4c-.03-.82,.21-1.62,.68-2.29,.7-.72,1.7-1.07,2.7-.94h13.21c.28,.03,.56-.05,.78-.23,.17-.27,.24-.59,.21-.91V1.86c.03-.34-.03-.68-.18-.99-.21-.21-.51-.3-.81-.26h-14.92c-1.53-.04-3.05,.23-4.47,.81-1.13,.48-2.14,1.22-2.94,2.16-.75,.9-1.3,1.95-1.64,3.07-.35,1.16-.52,2.37-.52,3.59V27.5c0,1.17,.14,2.34,.42,3.48,.27,1.12,.78,2.17,1.51,3.07,.79,.95,1.8,1.7,2.94,2.18,1.51,.61,3.13,.89,4.76,.83h15.39c.31,.04,.62-.06,.83-.29,.16-.28,.23-.59,.21-.91h-.02Zm24.05-21.45c.62,1.14,1.46,2.15,2.47,2.96,1.18,.95,2.48,1.76,3.85,2.42,1.49,.73,3.15,1.44,4.99,2.13,1.11,.42,2.04,.81,2.78,1.17,.64,.3,1.24,.68,1.77,1.14,.39,.34,.71,.76,.94,1.22,.2,.44,.29,.92,.29,1.4s-.09,.94-.26,1.38c-.2,.46-.52,.86-.94,1.14-.54,.37-1.14,.64-1.77,.81-.88,.23-1.79,.33-2.7,.31-.91,0-1.83-.08-2.73-.23-.92-.16-1.82-.35-2.7-.57s-1.74-.49-2.57-.78c-.83-.29-1.59-.58-2.29-.86-.27-.16-.58-.21-.88-.16-.28,.15-.49,.42-.57,.73l-1.77,4.16c-.15,.31-.21,.65-.18,.99,.08,.25,.26,.45,.49,.57,1,.61,2.07,1.11,3.17,1.51,1.15,.42,2.32,.76,3.51,1.01,1.19,.26,2.4,.45,3.61,.57s2.37,.18,3.48,.18c1.87,.02,3.73-.21,5.54-.68,1.55-.39,3.01-1.08,4.29-2.03,1.17-.89,2.12-2.05,2.76-3.38,.69-1.5,1.03-3.13,.99-4.78,.04-1.51-.27-3-.91-4.37-.61-1.22-1.46-2.29-2.5-3.17-1.16-.97-2.45-1.78-3.82-2.42-1.49-.71-3.12-1.41-4.89-2.11-1.14-.45-2.11-.87-2.89-1.25-.66-.31-1.29-.68-1.87-1.12-.41-.3-.76-.68-1.01-1.12-.21-.38-.32-.81-.31-1.25,0-.78,.34-1.53,.94-2.03,.94-.65,2.08-.94,3.22-.83,1.53,0,3.05,.17,4.55,.47,1.61,.31,3.23,.71,4.86,1.2,.28,.1,.59,.12,.88,.05,.27-.21,.45-.5,.52-.83l1.35-3.9c.15-.34,.21-.7,.18-1.07-.15-.28-.4-.5-.7-.6-.82-.4-1.67-.74-2.55-1.01-.97-.3-1.95-.55-2.94-.75-1.03-.21-2.07-.37-3.12-.47-1.06-.1-2.07-.16-3.04-.16-1.87-.04-3.74,.24-5.51,.83-1.43,.48-2.74,1.25-3.85,2.26-.99,.94-1.77,2.08-2.26,3.35-.51,1.31-.76,2.7-.75,4.11-.03,1.33,.26,2.64,.85,3.83h0v.03Zm55.51,21.44v-4.42c.04-.35-.03-.7-.18-1.01-.24-.2-.55-.28-.86-.23h-13.73c-.89,.06-1.77-.17-2.52-.65-.66-.64-.97-1.56-.86-2.47v-5.92h14.92c.3,.05,.6-.06,.81-.29,.14-.28,.2-.6,.18-.91v-4.06c.03-.34-.03-.68-.18-.99-.21-.21-.51-.3-.81-.26h-14.92v-4c-.03-.82,.21-1.62,.68-2.29,.7-.72,1.7-1.07,2.7-.94h13.21c.28,.03,.56-.05,.78-.23,.17-.27,.24-.59,.21-.91V1.85c.03-.34-.03-.68-.18-.99-.21-.21-.51-.3-.81-.26h-14.92c-1.53-.04-3.05,.23-4.47,.81-1.13,.48-2.14,1.22-2.94,2.16-.75,.9-1.3,1.95-1.64,3.07-.35,1.16-.52,2.37-.52,3.59V27.49c0,1.17,.14,2.34,.42,3.48,.27,1.12,.78,2.17,1.51,3.07,.79,.95,1.8,1.7,2.94,2.18,1.51,.61,3.13,.89,4.76,.83h15.39c.31,.04,.62-.06,.83-.29,.16-.28,.23-.59,.21-.91h-.01Zm27.14-16.12c1.53-.8,2.78-2.06,3.59-3.59,.82-1.53,1.25-3.25,1.25-4.99,.14-2.89-.99-5.7-3.09-7.7-2.06-1.91-4.98-2.86-8.76-2.86h-12.74c-.91-.12-1.83,.17-2.5,.81-.46,.7-.68,1.53-.62,2.37V35.96c-.04,.31,.07,.63,.29,.86,.27,.18,.59,.26,.91,.23h5.56c.34,.04,.68-.02,.99-.18,.18-.27,.25-.59,.21-.91v-13.67h5.04c1.3-.07,2.58,.27,3.67,.99,1.04,.92,1.74,2.17,2,3.54l2.29,9.2c.1,.45,.44,.8,.88,.91,.39,.08,.8,.13,1.2,.13h5.46c.33,.06,.64-.13,.75-.44,.09-.24,.09-.51,.03-.75l-2.65-10.4c-.28-1.12-.68-2.21-1.2-3.25-.55-1.01-1.43-1.79-2.5-2.21l-.04-.27h-.02Zm-4.47-5.03c-.96,.84-2.21,1.26-3.48,1.17h-6.92V7.56h7.07c.76-.02,1.53,.11,2.24,.39,1.02,.4,1.79,1.26,2.08,2.31,.13,.45,.2,.93,.21,1.4,.05,1.14-.39,2.25-1.2,3.05h0Zm25.38,4.44l-5.46-17.63c-.08-.27-.22-.51-.42-.7-.29-.19-.64-.27-.99-.23h-6.24c-.23-.04-.47,.06-.6,.26-.09,.2-.1,.42-.03,.62l11.08,32.76c.17,.5,.39,.98,.68,1.43,.21,.33,.49,.62,.81,.86,.3,.21,.65,.35,1.01,.42,.45,.07,.9,.11,1.35,.1h3.22c.44,0,.87-.03,1.3-.1,.36-.06,.71-.19,1.01-.39,.31-.21,.58-.49,.78-.81,.28-.46,.49-.95,.65-1.46L313.54,1.47c.07-.18,.08-.38,.03-.57-.1-.24-.35-.37-.6-.31h-6.34c-.31,0-.62,.03-.91,.13-.26,.13-.44,.37-.49,.65l-5.57,17.89-2.44,9.1h-.36l-2.65-9.21Zm31.04,16.8V1.76c.04-.31-.04-.63-.23-.88-.31-.18-.66-.25-1.01-.21h-5.51c-.32-.03-.64,.06-.91,.23-.22,.23-.32,.54-.29,.86V35.97c-.04,.31,.07,.63,.29,.86,.27,.18,.59,.26,.91,.23h5.51c.35,.04,.71-.03,1.01-.21,.19-.25,.28-.57,.23-.88h0v-.02Zm66.82-.1v-4.42c.04-.35-.03-.7-.18-1.01-.24-.2-.55-.28-.86-.23h-13.73c-.89,.06-1.77-.17-2.52-.65-.66-.64-.97-1.56-.86-2.47v-5.93h14.92c.3,.05,.6-.06,.81-.29,.14-.28,.2-.6,.18-.91v-4.06c.03-.34-.03-.68-.18-.99-.21-.21-.51-.3-.81-.26h-14.92v-4c-.03-.82,.21-1.62,.68-2.29,.7-.72,1.7-1.07,2.7-.94h13.21c.28,.03,.56-.05,.78-.23,.17-.27,.24-.59,.21-.91V1.84c.03-.34-.03-.68-.18-.99-.21-.21-.51-.3-.81-.26h-14.92c-1.53-.04-3.05,.23-4.47,.81-1.13,.48-2.14,1.22-2.94,2.16-.75,.9-1.3,1.95-1.64,3.07-.35,1.16-.52,2.37-.52,3.59V27.48c0,1.17,.14,2.34,.42,3.48,.27,1.12,.78,2.17,1.51,3.07,.79,.95,1.8,1.7,2.94,2.18,1.51,.61,3.13,.89,4.76,.83h15.39c.31,.04,.62-.06,.83-.29,.16-.28,.23-.59,.21-.91h-.01Z"/>
  <g id="_Слой_3" data-name=" Слой 3">
    <path class="cls-3" d="M348.7,37.64c6.28,0,13.06-1.58,13.02-4.1s-3.25-5.3-4.93-5.13c-2.98,.34-3.16,4.79-5.47,4.79-2.62,0-1.49-4.02-5.2-3.85-2.94,0-3.66,1.71-5.15-.04-2.49-2.95,.72-2.52,.05-6.5-.77-2.18-4.16-1.07-4.34-3.63,0-2.99,3.89-2.18,4.47-3.59,1.13-2.39-2.26-3.76-.18-6.11,.9-1.11,2.03-2.14,5.15-.98,2.67,.9,2.89-2.78,5.2-3.51,2.67-.3,2.44,4.4,5.15,4.02,2.76-.51,3.44-1.84,3.3-4.79,0-1.84-3.89-3.55-7.64-3.55-11.12-.04-20.79,4.36-20.79,18.42s7.05,18.55,17.36,18.55h0Z"/>
    <path class="cls-2" d="M351.33,11.9c4.2,.21,7.46,3.72,7.19,7.65-.27,3.72-3.57,6.71-7.55,6.75-4.16,0-7.64-3.29-7.64-7.22s3.71-7.39,8-7.18Z"/>
  </g>
</svg>