<?xml version="1.0" encoding="UTF-8"?>
<svg id="_Слой_2" data-name=" Слой 2" xmlns="http://www.w3.org/2000/svg" xmlns:xlink="http://www.w3.org/1999/xlink" viewBox="0 0 24.55 24.69">
  <defs>
    <style>
      .cls-1 {
        fill: url(#_Безымянный_градиент_2);
      }

      .cls-2 {
        fill: url(#_Безымянный_градиент_2-3);
      }

      .cls-3 {
        fill: url(#_Безымянный_градиент_2-2);
      }
    </style>
    <linearGradient id="_Безымянный_градиент_2" data-name="Безымянный градиент 2" x1="10.13" y1="24.71" x2="10.13" y2=".18" gradientUnits="userSpaceOnUse">
      <stop offset="0" stop-color="#81807e"/>
      <stop offset="1" stop-color="#e2e2e2"/>
    </linearGradient>
    <linearGradient id="_Безымянный_градиент_2-2" data-name="Безымянный градиент 2" x1="12.67" x2="12.67" xlink:href="#_Безымянный_градиент_2"/>
    <linearGradient id="_Безымянный_градиент_2-3" data-name="Безымянный градиент 2" x1="21.9" y1="24.71" x2="21.9" y2=".18" xlink:href="#_Безымянный_градиент_2"/>
  </defs>
  <g id="_Слой_2-2" data-name=" Слой 2-2">
    <path class="cls-1" d="M17.31,17.43c-.57-.84,.39-.85,.29-1.94-.03-.29-.04-.44-.15-.62-.46-.73-1.83-.46-1.79-1.76,0-.23,.04-.51,.24-.75,.34-.4,.8-.01,1.11-.36,0,0,.38-.52,.44-.98,.04-.3-.01-.58-.01-.58h0c-.08-.55-.33-.65-.31-.96,.02-.4,.57-.96,1.01-1.01,.38,.01,.33,.26,1.05,.45,.16,.05,.76,.07,.43-.52-.74-1.31-2.75-2.55-4.9-2.55s-3.44,1.19-4.51,1.19c-1.68,0-2.06-1.04-3.97-1.06,0,0-1.36-.02-2.63,.62C.45,8.18,.07,12.91,.02,13.56c-.37,5.47,3.6,11.2,6.7,11.13,1.32-.03,1.79-1.1,3.78-1.14,2.05-.04,2.48,1.08,4.08,1.06,2.84-.2,4.95-4.6,5.41-5.47,.51-.97,.2-1.49-.34-1.58-1.15-.27-1.57,.92-2.35-.13h.01Z"/>
    <path class="cls-3" d="M9.94,6.2c.85,.17,2.02-.1,2.53-.47,.92-.51,1.45-1.18,1.71-1.53,.73-.94,.97-1.81,1.02-2,.19-.71,.35-1.19,.11-2.16-1.3-.19-2.13,.38-2.52,.59-.84,.44-1.35,1.01-1.63,1.33-.28,.32-.79,1-1.04,1.96-.19,.75-.26,1.06-.19,2.28h.01Z"/>
    <path class="cls-2" d="M21.85,10.55c1.46-.03,2.7,1.17,2.7,2.65s-1.24,2.68-2.71,2.64c-1.43-.03-2.6-1.23-2.59-2.67,.01-1.43,1.18-2.6,2.6-2.62Z"/>
  </g>
</svg>