<?xml version="1.0" encoding="UTF-8"?>
<svg id="_Слой_1" data-name="Слой 1" xmlns="http://www.w3.org/2000/svg" viewBox="0 0 154 298">
  <defs>
    <style>
      .cls-1 {
        fill: #e2e2e2;
      }
    </style>
  </defs>
  <path class="cls-1" d="M132.2,0H21.8C9.77,.01,.01,9.76,0,21.8v254.4c.01,12.03,9.76,21.79,21.8,21.8h110.4c12.03-.01,21.79-9.76,21.8-21.8V21.8c-.01-12.03-9.76-21.79-21.8-21.8Zm11.8,276.2c0,6.52-5.28,11.8-11.8,11.8H21.8c-6.52,0-11.8-5.28-11.8-11.8h0V21.8c0-6.52,5.28-11.8,11.8-11.8h17.44c2.22,0,4.14,1.56,4.6,3.73l.97,4.63c.69,3.29,3.59,5.64,6.95,5.64h51.48c3.36,0,6.26-2.35,6.95-5.64l.97-4.63c.46-2.18,2.38-3.73,4.6-3.73h16.44c6.52,0,11.8,5.28,11.8,11.8v254.4Z"/>
  <path class="cls-1" d="M86.35,124.99c-8.6,1.25-9.51,8.37-9.32,11.1,4.47,.45,10.38-5.5,9.32-11.1Zm3.8,25.56c-.04-3.74,1.88-7.22,5.07-9.19-2.03-2.56-4.99-4.23-8.24-4.63-4.43-.8-6.19,2.07-9.57,2.07s-4.73-2.2-7.98-2.21c-.51,0-1.02,.05-1.52,.14-19.18,3.68-7.01,36.38,1.96,36.27,3.21,0,4.67-1.98,8.11-1.98s4.61,1.98,7.83,1.98c3.76,.04,8.14-5.74,10.48-12.71-3.79-1.75-6.19-5.57-6.13-9.75h0Z"/>
</svg>