<?xml version="1.0" encoding="UTF-8"?>
<svg id="_Слой_1" data-name="Слой 1" xmlns="http://www.w3.org/2000/svg" viewBox="0 0 154 298">
  <defs>
    <style>
      .cls-1 {
        fill: #e2e2e2;
      }
    </style>
  </defs>
  <path class="cls-1" d="M132.2,0H21.8C9.77,.01,.01,9.77,0,21.8v254.4c.01,12.03,9.77,21.79,21.8,21.8h110.4c12.03-.01,21.79-9.77,21.8-21.8V21.8c-.01-12.03-9.77-21.79-21.8-21.8Zm11.8,276.2c0,6.51-5.29,11.79-11.8,11.8H21.8c-6.51,0-11.79-5.29-11.8-11.8V21.8c0-6.51,5.29-11.79,11.8-11.8h110.4c6.51,0,11.79,5.29,11.8,11.8v254.4Z"/>
  <path class="cls-1" d="M31.2,19h-.4c-7.07,0-12.79,5.73-12.8,12.8v30.4c0,7.07,5.73,12.79,12.8,12.8h.4c7.07,0,12.79-5.73,12.8-12.8V31.8c0-7.07-5.73-12.79-12.8-12.8Zm7.8,43.2c0,4.31-3.49,7.8-7.8,7.8h-.4c-4.31,0-7.8-3.49-7.8-7.8V31.8c0-4.31,3.49-7.8,7.8-7.8h.4c4.31,0,7.8,3.49,7.8,7.8v30.4Z"/>
  <circle class="cls-1" cx="31" cy="47" r="4"/>
  <circle class="cls-1" cx="31" cy="32" r="6"/>
  <circle class="cls-1" cx="31" cy="62" r="6"/>
  <path class="cls-1" d="M84.69,71.33c-4.13,.34-7.2,3.96-6.87,8.09,0,.03,0,.05,0,.08,3.29,.33,7.64-4.05,6.86-8.17h0Zm2.8,18.81c-.03-2.75,1.39-5.32,3.73-6.76-1.5-1.89-3.67-3.11-6.06-3.41-3.26-.59-4.56,1.52-7.04,1.52s-3.48-1.61-5.87-1.62c-.38,0-.75,.04-1.12,.1-14.12,2.71-5.16,26.77,1.44,26.69,2.36,0,3.43-1.46,5.97-1.46s3.39,1.46,5.76,1.46c2.77,.03,5.99-4.22,7.71-9.35-2.79-1.29-4.56-4.1-4.51-7.17Z"/>
</svg>