<?xml version="1.0" encoding="UTF-8"?>
<svg id="_Слой_1" data-name=" Слой 1" xmlns="http://www.w3.org/2000/svg" viewBox="0 0 154 298">
  <defs>
    <style>
      .cls-1 {
        fill: #e2e2e2;
      }
    </style>
  </defs>
  <path class="cls-1" d="M132.2,0H21.8C9.77,0,0,9.76,0,21.8v254.4c0,12.03,9.76,21.79,21.8,21.8h110.4c12.03-.01,21.79-9.76,21.8-21.8V21.8c0-12.03-9.76-21.79-21.8-21.8Zm11.8,276.2c0,6.52-5.28,11.8-11.8,11.8H21.8c-6.52,0-11.8-5.28-11.8-11.8h0V21.8c0-6.52,5.28-11.8,11.8-11.8h17.44c2.22,0,4.14,1.56,4.6,3.73l.97,4.63c.69,3.29,3.59,5.64,6.95,5.64h51.48c3.36,0,6.26-2.35,6.95-5.64l.97-4.63c.46-2.18,2.38-3.73,4.6-3.73h16.44c6.52,0,11.8,5.28,11.8,11.8v254.4h0Z"/>
  <g>
    <path class="cls-1" d="M107.41,160.26c-3.66-3.66-8.95-4.67-13.53-3.05l-25.87-25.86c1.62-4.57,.61-9.87-3.05-13.53-2.62-2.62-6.08-3.89-9.51-3.8-1.54,.04-1.88,1.25-.79,2.34l3.33,3.33c3.16,3.16,3.16,6.38,0,9.55-3.16,3.16-6.38,3.16-9.55,0l-3.33-3.33c-1.09-1.09-2.3-.75-2.34,.79-.08,3.43,1.18,6.89,3.8,9.51,3.66,3.66,8.95,4.67,13.53,3.05l25.87,25.86c-1.62,4.57-.61,9.87,3.05,13.53,2.62,2.62,6.08,3.89,9.51,3.8,1.54-.04,1.88-1.25,.79-2.34l-3.33-3.33c-3.16-3.16-3.16-6.38,0-9.55,3.16-3.16,6.38-3.16,9.55,0l3.33,3.33c1.09,1.09,2.3,.75,2.34-.79,.08-3.43-1.18-6.89-3.8-9.51h0Z"/>
    <path class="cls-1" d="M98.92,131.35c.27-.27,.55-.46,.89-.62l4.64-2.16c.77-.36,1.13-.68,1.56-1.42l3.79-6.48c.2-.34,.17-.59-.11-.87l-2.96-2.97c-.28-.28-.52-.31-.87-.11l-6.48,3.79c-.74,.43-1.06,.78-1.42,1.56l-2.16,4.64c-.16,.34-.35,.62-.62,.89l-12.76,12.76,3.75,3.75,12.76-12.76Z"/>
    <path class="cls-1" d="M61.85,152.96c-.38,.04-.67,.15-.94,.42l-13.79,13.78c-4.27,4.26-3.88,7.83,0,11.7l.52,.52c3.88,3.88,7.44,4.26,11.7,0l13.78-13.79c.27-.27,.39-.56,.43-.94,.12-1.21,.48-3.07,1.91-4.69l-8.93-8.93c-1.62,1.43-3.47,1.79-4.69,1.91h0Z"/>
  </g>
</svg>