<?xml version="1.0" encoding="UTF-8"?>
<svg id="_Слой_1" data-name="Слой 1" xmlns="http://www.w3.org/2000/svg" viewBox="0 0 1408 1664">
  <defs>
    <style>
      .cls-1 {
        fill: #e2e2e2;
      }
    </style>
  </defs>
  <path class="cls-1" d="M493,355c10.67,0,19.83-3.83,27.5-11.5s11.5-16.83,11.5-27.5-3.83-19.83-11.5-27.5-16.83-11.5-27.5-11.5-19.67,3.83-27,11.5-11,16.83-11,27.5,3.67,19.83,11,27.5,16.33,11.5,27,11.5Zm422,0c10.67,0,19.67-3.83,27-11.5s11-16.83,11-27.5-3.67-19.83-11-27.5-16.33-11.5-27-11.5-19.83,3.83-27.5,11.5-11.5,16.83-11.5,27.5,3.83,19.83,11.5,27.5,16.83,11.5,27.5,11.5ZM103,539c28,0,52,10,72,30s30,44,30,72v430c0,28.67-9.83,53-29.5,73s-43.83,30-72.5,30-53-10-73-30S0,1099.67,0,1071v-430c0-28,10-52,30-72s44.33-30,73-30Zm1060,19v666c0,30.67-10.67,56.67-32,78s-47,32-77,32h-75v227c0,28.67-10,53-30,73s-44.33,30-73,30-53-10-73-30-30-44.33-30-73v-227h-138v227c0,28.67-10,53-30,73s-44.33,30-73,30-52-10-72-30-30-44.33-30-73l-1-227h-74c-30.67,0-56.67-10.67-78-32s-32-47.33-32-78V558h918Zm-232-405c71.33,36.67,128.33,87.83,171,153.5s64,137.5,64,215.5H241c0-78,21.33-149.83,64-215.5,42.67-65.67,100-116.83,172-153.5L406,22c-4.67-8.67-3-15.33,5-20,8.67-4,15.33-2,20,6l72,132c63.33-28,130.33-42,201-42s137.67,14,201,42L977,8c4.67-8,11.33-10,20-6,8,4.67,9.67,11.33,5,20l-71,131Zm477,488v430c0,28.67-10,53-30,73s-44.33,30-73,30-52-10-72-30-30-44.33-30-73v-430c0-28.67,10-52.83,30-72.5s44-29.5,72-29.5,53,9.83,73,29.5,30,43.83,30,72.5Z"/>
</svg>