<?xml version="1.0" encoding="UTF-8"?>
<svg id="_Группа_1" data-name="Группа 1" xmlns="http://www.w3.org/2000/svg" xmlns:xlink="http://www.w3.org/1999/xlink" viewBox="0 0 314.87 105.58">
  <defs>
    <style>
      .cls-1 {
        fill: url(#_Безымянный_градиент_2);
        fill-rule: evenodd;
      }

      .cls-2 {
        fill: url(#_Безымянный_градиент_2-5);
      }

      .cls-3 {
        fill: url(#_Безымянный_градиент_2-3);
      }

      .cls-4 {
        fill: url(#_Безымянный_градиент_2-4);
      }

      .cls-5 {
        fill: url(#_Безымянный_градиент_2-2);
      }

      .cls-6 {
        fill: url(#_Безымянный_градиент_2-6);
      }
    </style>
    <linearGradient id="_Безымянный_градиент_2" data-name="Безымянный градиент 2" x1="212.45" y1="-.83" x2="212.45" y2="105.02" gradientUnits="userSpaceOnUse">
      <stop offset="0" stop-color="#e2e2e2"/>
      <stop offset="1" stop-color="#81807e"/>
    </linearGradient>
    <linearGradient id="_Безымянный_градиент_2-2" data-name="Безымянный градиент 2" x1="43.31" y1="-.83" x2="43.31" y2="105.02" xlink:href="#_Безымянный_градиент_2"/>
    <linearGradient id="_Безымянный_градиент_2-3" data-name="Безымянный градиент 2" x1="54.19" y1="-.83" x2="54.19" y2="105.02" xlink:href="#_Безымянный_градиент_2"/>
    <linearGradient id="_Безымянный_градиент_2-4" data-name="Безымянный градиент 2" x1="93.67" y1="-.83" x2="93.67" y2="105.02" xlink:href="#_Безымянный_градиент_2"/>
    <linearGradient id="_Безымянный_градиент_2-5" data-name="Безымянный градиент 2" x1="268.76" y1="-.83" x2="268.76" y2="105.02" xlink:href="#_Безымянный_градиент_2"/>
    <linearGradient id="_Безымянный_градиент_2-6" data-name="Безымянный градиент 2" x1="273.03" y1="-.83" x2="273.03" y2="105.02" xlink:href="#_Безымянный_градиент_2"/>
  </defs>
  <path id="APPLE_SERVI_E" data-name="APPLE SERVI E" class="cls-1" d="M134.32,41.09c.05,.31,.26,.58,.55,.7,.31,.09,.64,.14,.96,.13h6.19c.28,.06,.57-.1,.68-.36,.07-.22,.07-.46,0-.68l-10.82-32.6c-.16-.52-.38-1.03-.65-1.51-.2-.35-.47-.65-.81-.88-.33-.21-.7-.35-1.09-.39-.5-.06-1-.08-1.51-.08h-3.12c-.46,0-.92,.04-1.38,.13-.37,.08-.73,.23-1.04,.44-.32,.23-.58,.52-.78,.86-.26,.45-.46,.93-.6,1.43l-10.82,32.6c-.07,.24-.06,.49,.03,.73,.15,.24,.42,.36,.7,.31h6.09c.35,.03,.71-.05,1.01-.23,.22-.2,.37-.46,.44-.75l2.03-6.6h11.91l2.02,6.76Zm-10.09-19.79l1.97-7.46h.31l1.92,7.46,1.98,6.63h-8.16l1.98-6.63Zm32.55,7.41h6.92c2.41,.1,4.8-.36,6.99-1.35,1.57-.75,2.94-1.87,4-3.25,.87-1.16,1.48-2.49,1.79-3.9,.25-1.1,.39-2.22,.42-3.35,.02-1.56-.26-3.12-.83-4.58-.54-1.36-1.36-2.58-2.42-3.59-1.11-1.04-2.42-1.84-3.85-2.37-1.62-.59-3.34-.88-5.07-.86h-12.74c-.92-.13-1.85,.19-2.5,.86-.45,.69-.67,1.5-.62,2.31V40.83c-.04,.31,.07,.63,.29,.86,.27,.18,.59,.26,.91,.23h5.46c.35,.04,.7-.03,1.01-.18,.2-.26,.28-.59,.23-.91v-12.12h0Zm10.71-7.82c-1.02,1.03-2.45,1.55-3.9,1.43h-6.81V12.44h6.76c.88-.03,1.76,.14,2.57,.49,.62,.29,1.18,.72,1.61,1.25,.38,.47,.66,1.02,.81,1.61,.13,.52,.2,1.05,.21,1.59,.04,1.29-.41,2.54-1.25,3.51Zm24.34,7.83h6.92c2.41,.1,4.8-.36,6.99-1.35,1.57-.75,2.94-1.87,4-3.25,.87-1.16,1.48-2.49,1.79-3.9,.25-1.1,.39-2.22,.42-3.35,.02-1.56-.26-3.12-.83-4.58-.53-1.36-1.36-2.59-2.42-3.59-1.11-1.04-2.42-1.84-3.85-2.37-1.62-.59-3.34-.88-5.07-.86h-12.74c-.92-.13-1.85,.19-2.5,.86-.45,.69-.67,1.5-.62,2.31V40.83c-.04,.31,.07,.63,.29,.86,.27,.18,.59,.26,.91,.23h5.46c.35,.04,.7-.03,1.01-.18,.2-.26,.28-.59,.23-.91v-12.12h0Zm10.71-7.82c-1.02,1.03-2.45,1.55-3.9,1.43h-6.81V12.44h6.76c.88-.03,1.76,.14,2.57,.49,.62,.29,1.18,.72,1.61,1.25,.38,.47,.66,1.02,.81,1.61,.13,.52,.2,1.05,.21,1.59,.04,1.29-.41,2.54-1.25,3.51Zm26.05,21.03h15.03c.51,.05,.96-.33,1-.84,0-.09,0-.17-.01-.26v-4.63c.05-.32-.03-.64-.21-.91-.23-.15-.51-.21-.78-.18h-13.21c-.89,.04-1.77-.19-2.52-.68-.73-.67-1.09-1.66-.96-2.65V6.56c.04-.31-.04-.63-.23-.88-.31-.18-.66-.25-1.01-.21h-5.51c-.32-.03-.64,.06-.91,.23-.22,.23-.32,.54-.29,.86v25.79c0,1.17,.14,2.34,.42,3.48,.27,1.12,.78,2.17,1.51,3.07,.79,.95,1.8,1.7,2.94,2.18,1.51,.61,3.13,.89,4.76,.83h0Zm48.05-1.2v-4.42c.04-.35-.03-.7-.18-1.01-.24-.2-.55-.28-.86-.23h-13.73c-.89,.06-1.77-.17-2.52-.65-.66-.64-.97-1.56-.86-2.47v-5.92h14.92c.3,.05,.6-.06,.81-.29,.14-.28,.2-.6,.18-.91v-4.06c.03-.34-.03-.68-.18-.99-.21-.21-.51-.3-.81-.26h-14.92v-4c-.03-.82,.21-1.62,.68-2.29,.7-.72,1.7-1.07,2.7-.94h13.21c.28,.03,.56-.05,.78-.23,.17-.27,.24-.59,.21-.91V6.72c.03-.34-.03-.68-.18-.99-.21-.21-.51-.3-.81-.26h-14.92c-1.53-.04-3.05,.23-4.47,.81-1.13,.48-2.14,1.22-2.94,2.16-.75,.9-1.3,1.95-1.64,3.07-.35,1.16-.52,2.37-.52,3.59v17.26c0,1.17,.14,2.34,.41,3.48,.27,1.12,.78,2.17,1.51,3.07,.79,.95,1.8,1.7,2.94,2.18,1.51,.61,3.13,.89,4.76,.83h15.4c.31,.04,.62-.06,.83-.29,.16-.28,.23-.59,.21-.91h0ZM113.44,62.27c.62,1.14,1.46,2.15,2.47,2.96,1.18,.95,2.48,1.76,3.85,2.42,1.49,.73,3.15,1.44,4.99,2.13,1.11,.42,2.04,.81,2.78,1.17,.64,.3,1.24,.68,1.77,1.14,.39,.34,.71,.76,.94,1.22,.2,.44,.29,.92,.29,1.4,0,.47-.09,.94-.26,1.38-.2,.46-.52,.86-.94,1.14-.54,.37-1.14,.64-1.77,.81-.88,.23-1.79,.33-2.7,.31-.91,0-1.83-.08-2.73-.23-.92-.16-1.82-.35-2.7-.57s-1.74-.49-2.57-.78c-.83-.29-1.59-.58-2.29-.86-.27-.16-.58-.21-.88-.16-.28,.15-.49,.42-.57,.73l-1.77,4.16c-.15,.31-.21,.65-.18,.99,.08,.25,.26,.45,.49,.57,1,.61,2.07,1.11,3.17,1.51,1.15,.42,2.32,.76,3.51,1.01,1.19,.26,2.4,.45,3.61,.57,1.21,.12,2.37,.18,3.48,.18,1.87,.02,3.73-.21,5.54-.68,1.55-.39,3-1.07,4.28-2.02,1.17-.89,2.12-2.05,2.76-3.38,.69-1.5,1.03-3.14,.99-4.79,.04-1.51-.27-3-.91-4.37-.61-1.22-1.46-2.29-2.5-3.17-1.16-.97-2.45-1.78-3.82-2.42-1.49-.71-3.12-1.41-4.89-2.11-1.14-.45-2.11-.87-2.89-1.25-.66-.31-1.29-.68-1.87-1.12-.41-.3-.76-.68-1.01-1.12-.21-.38-.32-.81-.31-1.25,0-.78,.34-1.53,.94-2.03,.94-.65,2.08-.94,3.22-.83,1.53,.01,3.05,.17,4.55,.47,1.61,.31,3.23,.71,4.86,1.2,.28,.1,.59,.12,.88,.05,.27-.21,.45-.5,.52-.83l1.35-3.9c.15-.34,.21-.7,.18-1.07-.15-.28-.4-.5-.7-.6-.82-.4-1.67-.74-2.55-1.01-.97-.3-1.95-.55-2.94-.75-1.03-.21-2.07-.37-3.12-.47-1.06-.1-2.07-.16-3.04-.16-1.87-.04-3.74,.24-5.51,.83-1.43,.48-2.74,1.25-3.85,2.26-.99,.94-1.77,2.08-2.26,3.35-.51,1.31-.76,2.7-.75,4.11-.03,1.32,.26,2.64,.85,3.82h0Zm55.51,21.45v-4.42c.04-.35-.03-.7-.18-1.01-.24-.2-.55-.28-.86-.23h-13.73c-.89,.06-1.77-.17-2.52-.65-.66-.64-.97-1.56-.86-2.47v-5.92h14.92c.3,.05,.6-.06,.81-.29,.14-.28,.2-.6,.18-.91v-4.06c.03-.34-.03-.68-.18-.99-.21-.21-.51-.3-.81-.26h-14.92v-4c-.03-.82,.21-1.62,.68-2.29,.7-.72,1.7-1.07,2.7-.94h13.21c.28,.03,.56-.05,.78-.23,.17-.27,.24-.59,.21-.91v-4.42c.03-.34-.03-.68-.18-.99-.21-.21-.51-.3-.81-.26h-14.92c-1.53-.04-3.05,.23-4.47,.81-1.13,.48-2.14,1.22-2.94,2.16-.75,.9-1.3,1.95-1.64,3.07-.35,1.16-.52,2.37-.52,3.59v17.26c0,1.17,.14,2.34,.42,3.48,.27,1.12,.78,2.17,1.51,3.07,.79,.95,1.8,1.7,2.94,2.18,1.51,.61,3.13,.89,4.76,.83h15.39c.31,.04,.62-.06,.83-.29,.16-.28,.23-.59,.21-.91h0Zm27.14-16.12c1.53-.8,2.78-2.06,3.59-3.59,.83-1.53,1.25-3.25,1.25-4.99,.14-2.89-.99-5.7-3.09-7.7-2.06-1.91-4.98-2.86-8.76-2.86h-12.74c-.91-.12-1.83,.17-2.5,.81-.46,.7-.68,1.53-.62,2.37v32.2c-.04,.31,.07,.63,.29,.86,.27,.18,.59,.26,.91,.23h5.56c.34,.04,.68-.02,.99-.18,.18-.27,.25-.59,.21-.91v-13.68h5.04c1.3-.07,2.58,.27,3.67,.99,1.04,.92,1.74,2.17,2,3.54l2.29,9.2c.1,.45,.44,.8,.88,.91,.39,.08,.8,.13,1.2,.13h5.46c.33,.06,.64-.13,.75-.44,.09-.24,.09-.51,.03-.75l-2.65-10.4c-.28-1.12-.68-2.21-1.2-3.25-.55-1.01-1.43-1.79-2.5-2.21l-.04-.26Zm-4.47-5.01c-.96,.84-2.21,1.26-3.48,1.17h-6.92v-8.32h7.07c.76-.03,1.53,.11,2.24,.39,1.02,.4,1.79,1.26,2.08,2.31,.13,.45,.2,.93,.21,1.4,.05,1.14-.39,2.24-1.2,3.05Zm25.38,4.44l-5.46-17.63c-.08-.27-.22-.51-.42-.7-.29-.19-.64-.27-.99-.23h-6.24c-.23-.04-.47,.06-.6,.26-.09,.2-.1,.42-.03,.62l11.08,32.76c.17,.5,.39,.98,.68,1.43,.21,.33,.49,.62,.81,.86,.3,.21,.65,.35,1.01,.42,.45,.07,.9,.11,1.35,.1h3.22c.44,0,.87-.03,1.3-.1,.36-.06,.71-.19,1.01-.39,.31-.21,.58-.49,.78-.81,.28-.46,.49-.95,.65-1.46l11.18-32.81c.07-.18,.08-.38,.03-.57-.1-.24-.35-.37-.6-.31h-6.34c-.31-.01-.62,.03-.91,.13-.26,.13-.44,.37-.49,.65l-5.56,17.89-2.44,9.1h-.36l-2.65-9.21Zm31.04,16.8V49.61c.04-.31-.04-.63-.23-.88-.31-.18-.66-.25-1.01-.21h-5.51c-.32-.03-.64,.06-.91,.23-.22,.23-.32,.54-.29,.86v34.22c-.04,.31,.07,.63,.29,.86,.27,.18,.59,.26,.91,.23h5.51c.35,.04,.71-.03,1.01-.21,.19-.25,.28-.57,.23-.88h0Zm66.82-.1v-4.42c.04-.35-.03-.7-.18-1.01-.24-.2-.55-.28-.86-.23h-13.73c-.89,.06-1.77-.17-2.52-.65-.66-.64-.97-1.56-.86-2.47v-5.94h14.92c.3,.05,.6-.06,.81-.29,.14-.28,.2-.6,.18-.91v-4.06c.03-.34-.03-.68-.18-.99-.21-.21-.51-.3-.81-.26h-14.92v-4c-.03-.82,.21-1.62,.68-2.29,.7-.72,1.7-1.07,2.7-.94h13.22c.28,.03,.56-.05,.78-.23,.17-.27,.24-.59,.21-.91v-4.42c.03-.34-.03-.68-.18-.99-.21-.21-.51-.3-.81-.26h-14.93c-1.53-.04-3.05,.23-4.47,.81-1.13,.48-2.14,1.22-2.94,2.16-.75,.9-1.3,1.95-1.64,3.07-.35,1.16-.52,2.37-.52,3.59v17.26c0,1.17,.14,2.34,.42,3.48,.27,1.12,.78,2.17,1.51,3.07,.79,.95,1.8,1.7,2.94,2.18,1.51,.61,3.13,.89,4.76,.83h15.39c.31,.04,.62-.06,.83-.29,.16-.28,.23-.59,.21-.91h0Z"/>
  <g id="_Слой_2-2" data-name=" Слой 2-2">
    <path class="cls-5" d="M74.04,74.53c-2.44-3.59,1.67-3.63,1.24-8.3-.13-1.24-.17-1.88-.64-2.65-1.97-3.12-7.83-1.97-7.65-7.53,0-.98,.17-2.18,1.03-3.21,1.45-1.71,3.42-.04,4.75-1.54,0,0,1.62-2.22,1.88-4.19,.17-1.28-.04-2.48-.04-2.48h0c-.34-2.35-1.41-2.78-1.33-4.11,.09-1.71,2.44-4.11,4.32-4.32,1.62,.04,1.41,1.11,4.49,1.92,.68,.21,3.25,.3,1.84-2.22-3.16-5.6-11.76-10.9-20.95-10.9s-14.71,5.09-19.29,5.09c-7.18,0-8.81-4.45-16.98-4.53,0,0-5.82-.09-11.25,2.65C1.94,34.97,.32,55.2,.1,57.98c-1.58,23.39,15.39,47.89,28.65,47.59,5.64-.13,7.65-4.7,16.16-4.87,8.77-.17,10.61,4.62,17.45,4.53,12.14-.86,21.17-19.67,23.13-23.39,2.18-4.15,.86-6.37-1.45-6.76-4.92-1.15-6.71,3.93-10.05-.56h.04Z"/>
    <path class="cls-3" d="M42.52,26.51c3.63,.73,8.64-.43,10.82-2.01,3.93-2.18,6.2-5.05,7.31-6.54,3.12-4.02,4.15-7.74,4.36-8.55,.81-3.04,1.5-5.09,.47-9.24-5.56-.81-9.11,1.62-10.78,2.52-3.59,1.88-5.77,4.32-6.97,5.69-1.2,1.37-3.38,4.28-4.45,8.38-.81,3.21-1.11,4.53-.81,9.75h.04Z"/>
    <path class="cls-4" d="M93.45,45.11c6.24-.13,11.55,5,11.55,11.33s-5.3,11.46-11.59,11.29c-6.12-.13-11.12-5.26-11.08-11.42,.04-6.12,5.05-11.12,11.12-11.2Z"/>
  </g>
  <g id="_Слой_3" data-name=" Слой 3">
    <path class="cls-2" d="M270.87,85.79c6.11,0,12.7-1.63,12.65-4.22s-3.16-5.45-4.79-5.27c-2.9,.35-3.08,4.92-5.32,4.92-2.55,0-1.45-4.13-5.05-3.95-2.86,0-3.56,1.76-5.01-.04-2.42-3.03,.7-2.59,.04-6.68-.75-2.24-4.04-1.1-4.22-3.73,0-3.08,3.78-2.24,4.35-3.69,1.1-2.46-2.2-3.87-.18-6.28,.88-1.14,1.98-2.2,5.01-1.01,2.59,.92,2.81-2.86,5.05-3.6,2.59-.31,2.37,4.52,5.01,4.13,2.68-.53,3.34-1.89,3.21-4.92,0-1.89-3.78-3.65-7.42-3.65-10.81-.04-20.21,4.48-20.21,18.93s6.85,19.07,16.87,19.07Z"/>
    <path class="cls-6" d="M273.42,59.34c4.09,.22,7.25,3.82,6.98,7.86-.26,3.82-3.47,6.9-7.34,6.94-4.04,0-7.42-3.38-7.42-7.42s3.6-7.6,7.78-7.38Z"/>
  </g>
</svg>